<svg width="1920" height="1080" viewBox="0 0 1920 1080" fill="none" xmlns="http://www.w3.org/2000/svg">
<rect width="1920" height="1080" fill="#2F2F2F"/>
<g clip-path="url(#clip0_222_6)">
<path d="M1148.94 370.197L1129.8 351.062L770.062 710.803L789.197 729.938L816.26 702.875H1094.81C1101.99 702.865 1108.86 700.011 1113.94 694.938C1119.01 689.865 1121.87 682.987 1121.88 675.812V397.26L1148.94 370.197ZM1094.81 675.812H843.322L948.77 570.363L980.958 602.55C986.033 607.625 992.916 610.476 1000.09 610.476C1007.27 610.476 1014.15 607.625 1019.23 602.55L1040.69 581.094L1094.81 635.182V675.812ZM1094.81 596.901L1059.82 561.91C1054.75 556.835 1047.86 553.984 1040.69 553.984C1033.51 553.984 1026.63 556.835 1021.55 561.91L1000.09 583.37L967.93 551.205L1094.81 424.322V596.901Z" fill="#AAAAAA"/>
<path d="M824.188 621.688V581.094L891.844 513.484L910.426 532.066L929.585 512.906L910.98 494.3C905.904 489.225 899.021 486.374 891.844 486.374C884.666 486.374 877.783 489.225 872.708 494.3L824.188 542.822V405.188H1040.69V378.125H824.188C817.012 378.132 810.133 380.986 805.059 386.059C799.986 391.133 797.132 398.012 797.125 405.188V621.688H824.188Z" fill="#AAAAAA"/>
</g>
<defs>
<clipPath id="clip0_222_6">
<rect width="433" height="433" fill="white" transform="translate(743 324)"/>
</clipPath>
</defs>
</svg>
